<?xml version="1.0" encoding="utf-8"?>
<!-- Generator: Adobe Illustrator 22.1.0, SVG Export Plug-In . SVG Version: 6.00 Build 0)  -->
<svg version="1.1" id="Layer_1" xmlns="http://www.w3.org/2000/svg" xmlns:xlink="http://www.w3.org/1999/xlink" x="0px" y="0px"
	 viewBox="0 0 83 83" style="enable-background:new 0 0 83 83;" xml:space="preserve">
<style type="text/css">
	.st0{fill:#FFFFFF;stroke:#000000;stroke-width:3;stroke-miterlimit:10;}
	.st1{fill:#FFFF00;stroke:#000000;stroke-width:3;stroke-miterlimit:10;}
	.st2{fill:#FFFF00;}
</style>
<path class="st0" d="M61.5,81.5h-40c-11,0-20-9-20-20v-40c0-11,9-20,20-20h40c11,0,20,9,20,20v40C81.5,72.5,72.5,81.5,61.5,81.5z"/>
<path class="st1" d="M41.3,31.7c-4.3-0.7-7.5,1.3-9.6,5.9c0,0,0,0.1-0.1,0.1c-0.6,2-0.6,3.6-0.3,5.1c0,0.1,0,0.2,0,0.2
	c0,1.8-1.8,2.5-3.7,3.1c-9.5,3.5-9.4,14.2-4.1,18.4c0,0,0,0,0,0c1.1,2,16.9,7.9,19.8,6.8c0.1,0,0.2-0.1,0.3-0.1
	c6.3,0.4,13.6-9.2,7.3-17.8c0-0.1-0.1-0.1-0.1-0.2c-0.5-1.3-1-2.6-0.5-3.8c0.1-0.2,0.2-0.3,0.3-0.4c4.3-3.3,4.9-11.4-1.1-14.7
	c0,0-0.1,0-0.1,0C46.4,33.2,43.7,32.3,41.3,31.7C41.4,31.7,41.3,31.7,41.3,31.7z"/>
<rect x="27.1" y="56.3" transform="matrix(0.9471 0.321 -0.321 0.9471 20.7363 -8.7129)" width="19.5" height="4.5"/>
<rect x="45.1" y="13.3" transform="matrix(0.9471 0.321 -0.321 0.9471 11.6404 -13.5476)" width="3.6" height="30.5"/>
<path d="M50.9,16.5L50.9,16.5c-1.2-0.4-1.9-1.8-1.5-3l1.3-3.9c0.4-1.2,1.8-1.9,3-1.5l0,0c1.2,0.4,1.9,1.8,1.5,3L53.9,15
	C53.5,16.3,52.2,16.9,50.9,16.5z"/>
<path class="st2" d="M50.4,15.1L50.4,15.1c-0.2-0.1-0.4-0.3-0.3-0.6l1.8-5.3C52,9,52.3,8.9,52.5,9l0,0c0.2,0.1,0.4,0.3,0.3,0.6
	L51,14.8C50.9,15.1,50.6,15.2,50.4,15.1z"/>
<path class="st2" d="M52.2,15.6L52.2,15.6c-0.2-0.1-0.4-0.3-0.3-0.6l1.8-5.3c0.1-0.2,0.3-0.4,0.6-0.3h0c0.2,0.1,0.4,0.3,0.3,0.6
	l-1.8,5.3C52.6,15.5,52.4,15.7,52.2,15.6z"/>
<circle cx="41.2" cy="45.4" r="5"/>
</svg>
