<?xml version="1.0" encoding="utf-8"?>
<!-- Generator: Adobe Illustrator 22.1.0, SVG Export Plug-In . SVG Version: 6.00 Build 0)  -->
<svg version="1.1" id="Layer_1" xmlns="http://www.w3.org/2000/svg" xmlns:xlink="http://www.w3.org/1999/xlink" x="0px" y="0px"
	 viewBox="0 0 143 251.4" style="enable-background:new 0 0 143 251.4;" xml:space="preserve">
<style type="text/css">
	.st0{stroke:#FFFF00;stroke-width:5;stroke-miterlimit:10;}
	.st1{fill:#FFFF00;}
</style>
<path class="st0" d="M85.5,93.5c-16.9-2.6-29.4,5.1-37.4,22.9c-0.1,0.2-0.1,0.4-0.2,0.5c-2.3,7.7-2.4,14.2-1,19.7
	c0.1,0.3,0.1,0.6,0.1,0.9c0,7.1-7.1,9.8-14.5,12.3c-37,13.5-36.7,55.4-16.1,71.9c0.1,0,0.1,0.1,0.1,0.2c4.4,7.6,65.9,30.9,77.1,26.5
	c0.4-0.2,0.8-0.2,1.2-0.2c24.7,1.4,52.9-35.9,28.5-69.2c-0.2-0.2-0.3-0.4-0.4-0.7c-2.1-4.9-3.7-10.1-1.9-14.9
	c0.2-0.7,0.7-1.2,1.2-1.6c16.6-12.8,19-44.6-4.3-57.2c-0.1-0.1-0.2-0.1-0.4-0.2c-12.2-4.9-22.8-8.6-31.8-10.8
	C85.7,93.5,85.6,93.5,85.5,93.5z"/>
<rect x="30" y="189.2" transform="matrix(0.9471 0.321 -0.321 0.9471 67.1486 -11.329)" class="st1" width="75.9" height="17.5"/>
<path class="st1" d="M139.6,18.6l-20.5-7c-1.1-0.4-1.7-1.6-1.3-2.7l0.6-1.8c0.4-1.1,1.6-1.7,2.7-1.3l20.5,7c1.1,0.4,1.7,1.6,1.3,2.7
	l-0.6,1.8C141.9,18.4,140.7,18.9,139.6,18.6z"/>
<path class="st1" d="M137,26.2l-20.5-7c-1.1-0.4-1.7-1.6-1.3-2.7l0.6-1.8c0.4-1.1,1.6-1.7,2.7-1.3l20.5,7c1.1,0.4,1.7,1.6,1.3,2.7
	l-0.6,1.8C139.3,26,138.1,26.6,137,26.2z"/>
<rect x="100.4" y="21.6" transform="matrix(0.9471 0.321 -0.321 0.9471 31.6944 -30.1739)" class="st1" width="14" height="118.9"/>
<path class="st1" d="M127.1,35.6l-8.1-2.7c-2.6-0.9-4-3.7-3.1-6.3l7.8-23.1c0.9-2.6,3.7-4,6.3-3.1l8.1,2.7c2.6,0.9,4,3.7,3.1,6.3
	l-7.8,23.1C132.5,35.1,129.7,36.5,127.1,35.6z"/>
<path d="M121,28.8L121,28.8c-0.9-0.3-1.4-1.3-1.1-2.2l7-20.5c0.3-0.9,1.3-1.4,2.2-1.1v0c0.9,0.3,1.4,1.3,1.1,2.2l-7,20.5
	C122.9,28.6,121.9,29.1,121,28.8z"/>
<path d="M127.8,30.5L127.8,30.5c-0.9-0.3-1.4-1.3-1.1-2.2l7-20.5c0.3-0.9,1.3-1.4,2.2-1.1v0c0.9,0.3,1.4,1.3,1.1,2.2l-7,20.5
	C129.7,30.3,128.7,30.8,127.8,30.5z"/>
<circle class="st1" cx="85.1" cy="146.6" r="19.6"/>
</svg>
