<?xml version="1.0" encoding="utf-8"?>
<!-- Generator: Adobe Illustrator 22.1.0, SVG Export Plug-In . SVG Version: 6.00 Build 0)  -->
<svg version="1.1" id="Layer_1" xmlns="http://www.w3.org/2000/svg" xmlns:xlink="http://www.w3.org/1999/xlink" x="0px" y="0px"
	 viewBox="0 0 83 83" style="enable-background:new 0 0 83 83;" xml:space="preserve">
<style type="text/css">
	.st0{fill:#FFFFFF;stroke:#000000;stroke-width:3;stroke-miterlimit:10;}
	.st1{fill:none;stroke:#000000;stroke-width:2;stroke-miterlimit:10;}
	.st2{fill:none;stroke:#000000;stroke-miterlimit:10;}
</style>
<path class="st0" d="M62.1,81.3h-40c-11,0-20-9-20-20v-40c0-11,9-20,20-20h40c11,0,20,9,20,20v40C82.1,72.4,73.2,81.3,62.1,81.3z"/>
<path class="st1" d="M60.2,64.1H24.5c-1.9,0-3.4-1.5-3.4-3.4V22.4c0-1.9,1.5-3.4,3.4-3.4h17.9h17.9c1.9,0,3.4,1.5,3.4,3.4v38.3
	C63.6,62.6,62.1,64.1,60.2,64.1z"/>
<line class="st2" x1="42.3" y1="33.6" x2="42.3" y2="63.4"/>
<line class="st2" x1="32.1" y1="33.6" x2="32.2" y2="63.4"/>
<line class="st2" x1="52.7" y1="34.2" x2="52.8" y2="64"/>
<rect x="29.2" y="18.8" width="5.5" height="22.8"/>
<rect x="39.4" y="18.8" width="5.5" height="22.8"/>
<rect x="49.8" y="18.8" width="5.5" height="22.8"/>
</svg>
