<?xml version="1.0" encoding="utf-8"?>
<!-- Generator: Adobe Illustrator 22.1.0, SVG Export Plug-In . SVG Version: 6.00 Build 0)  -->
<svg version="1.1" id="Layer_1" xmlns="http://www.w3.org/2000/svg" xmlns:xlink="http://www.w3.org/1999/xlink" x="0px" y="0px"
	 viewBox="0 0 160.5 180.4" style="enable-background:new 0 0 160.5 180.4;" xml:space="preserve">
<style type="text/css">
	.st0{fill:#FFFF00;}
</style>
<path class="st0" d="M52.5,9.6l46.5,141.9c3.6,12.1,9.7,12.1,9.7-2.4l-13.3-45.9l1.2-8.5l54.4,24.2c-16.2-1.2-19.6,4-16.9,12.1
	c2.7,34.1-7.4,43.1-19.3,48.3c-12.9,3.2-31.4,0-38.7-23L45.9,23.5c-2-7.6-8.5-9.7-12.1,2.4C27.2,38.9,15.1,42.7,0,41.6V38
	c12.5-2.7,24.9-5.8,31.4-29C35-3.1,49.5-3.1,52.5,9.6z"/>
<circle cx="71.3" cy="94.8" r="4.2"/>
<circle cx="78.5" cy="121.3" r="4.2"/>
<circle cx="74.9" cy="108" r="4.2"/>
<path class="st0" d="M154.2,115.7l-56-24.9c-2-0.9-2.9-3.3-2-5.3l0.7-1.5c0.9-2,3.3-2.9,5.3-2l56,24.9c2,0.9,2.9,3.3,2,5.3l-0.7,1.5
	C158.6,115.7,156.2,116.6,154.2,115.7z"/>
</svg>
