<?xml version="1.0" encoding="utf-8"?>
<!-- Generator: Adobe Illustrator 22.1.0, SVG Export Plug-In . SVG Version: 6.00 Build 0)  -->
<svg version="1.1" id="Layer_1" xmlns="http://www.w3.org/2000/svg" xmlns:xlink="http://www.w3.org/1999/xlink" x="0px" y="0px"
	 viewBox="0 0 83 83" style="enable-background:new 0 0 83 83;" xml:space="preserve">
<style type="text/css">
	.st0{fill:#FFFFFF;stroke:#000000;stroke-width:3;stroke-miterlimit:10;}
	.st1{fill:#FFFF00;}
</style>
<path class="st0" d="M62.1,81.3h-40c-11,0-20-9-20-20v-40c0-11,9-20,20-20h40c11,0,20,9,20,20v40C82.1,72.4,73.2,81.3,62.1,81.3z"/>
<path d="M33.8,15.9L48.6,61c1.2,3.8,3.1,3.8,3.1-0.8l-4.2-14.6l0.4-2.7l17.3,7.7c-5.2-0.4-6.2,1.3-5.4,3.8
	c0.9,10.8-2.3,13.7-6.1,15.4c-4.1,1-10,0-12.3-7.3l-9.6-42.3c-0.6-2.4-2.7-3.1-3.8,0.8c-2.1,4.1-5.9,5.4-10.8,5v-1.2
	c4-0.8,7.9-1.8,10-9.2C28.3,11.8,32.9,11.8,33.8,15.9z"/>
<circle class="st1" cx="39.8" cy="43" r="1.3"/>
<circle class="st1" cx="42.1" cy="51.4" r="1.3"/>
<circle class="st1" cx="41" cy="47.2" r="1.3"/>
<path d="M65.9,49.5l-17.3-7.7c-0.8-0.3-1.1-1.3-0.8-2v0c0.3-0.8,1.3-1.1,2-0.8l17.3,7.7c0.8,0.3,1.1,1.3,0.8,2v0
	C67.6,49.5,66.7,49.8,65.9,49.5z"/>
</svg>
